<svg id="logo" xmlns="http://www.w3.org/2000/svg" width="79" height="25" viewBox="0 0 79 25">
  <g id="그룹_50" data-name="그룹 50" transform="translate(0 2.071)">
    <path id="패스_6" data-name="패스 6" d="M59.582,17.659,56.5,9.105a.364.364,0,0,0-.342-.24H52.979a.363.363,0,0,0-.337.5l5.25,13.27a.366.366,0,0,0,.339.231h2.706a.368.368,0,0,0,.339-.231l5.25-13.27a.364.364,0,0,0-.338-.5H63.01a.363.363,0,0,0-.342.24Z" transform="translate(-19.547 -5.365)" fill="#564aff"/>
    <path id="패스_7" data-name="패스 7" d="M79.029,22.862H81.94A.364.364,0,0,0,82.3,22.5V9.229a.364.364,0,0,0-.364-.364H79.029a.365.365,0,0,0-.365.364V22.5a.365.365,0,0,0,.365.363" transform="translate(-29.225 -5.365)" fill="#564aff"/>
    <path id="패스_8" data-name="패스 8" d="M119.539,11.58V9.228a.364.364,0,0,0-.363-.364h-8.511a.365.365,0,0,0-.365.364V22.5a.365.365,0,0,0,.365.364h8.511a.363.363,0,0,0,.363-.364V20.147a.364.364,0,0,0-.363-.364H113.73V17.3h5.025a.365.365,0,0,0,.365-.365V14.72a.365.365,0,0,0-.365-.364H113.73V11.944h5.446a.365.365,0,0,0,.363-.364" transform="translate(-40.978 -5.365)" fill="#564aff"/>
    <path id="패스_9" data-name="패스 9" d="M97.995,15.578a3.9,3.9,0,0,0,1.831-3.122,3.517,3.517,0,0,0-3.812-3.591H90.155a.365.365,0,0,0-.365.364V22.5a.364.364,0,0,0,.365.364H96c2.361-.006,4.149-1.153,4.149-3.839a3.545,3.545,0,0,0-2.154-3.445M93.22,11.663h1.765A1.379,1.379,0,0,1,96.444,13.1c0,1.184-.712,1.5-1.223,1.5h-2Zm2.027,8.4H93.221V17.123h1.9a1.35,1.35,0,0,1,1.544,1.469,1.321,1.321,0,0,1-1.413,1.469" transform="translate(-33.358 -5.365)" fill="#564aff"/>
    <path id="패스_10" data-name="패스 10" d="M.253,13.763H2.586a.254.254,0,0,0,.254-.253V7.423a.253.253,0,0,0-.254-.253H.253A.253.253,0,0,0,0,7.423V13.51a.254.254,0,0,0,.253.253" transform="translate(0 -4.735)" fill="#564aff"/>
    <path id="패스_11" data-name="패스 11" d="M6.386,16.178H8.719a.254.254,0,0,0,.255-.253V3.55A.254.254,0,0,0,8.719,3.3H6.386a.254.254,0,0,0-.254.254V15.925a.254.254,0,0,0,.254.253" transform="translate(-2.278 -3.296)" fill="#564aff"/>
    <path id="패스_12" data-name="패스 12" d="M12.52,22.473h2.333a.253.253,0,0,0,.253-.253V9.845a.254.254,0,0,0-.253-.255H12.52a.254.254,0,0,0-.254.255V22.219a.254.254,0,0,0,.254.253" transform="translate(-4.557 -5.634)" fill="#564aff"/>
    <path id="패스_13" data-name="패스 13" d="M24.786,22.473h2.333a.253.253,0,0,0,.253-.253V9.845a.254.254,0,0,0-.253-.255H24.786a.254.254,0,0,0-.254.255V22.219a.254.254,0,0,0,.254.253" transform="translate(-9.114 -5.634)" fill="#564aff"/>
    <path id="패스_14" data-name="패스 14" d="M30.919,16.178h2.333a.253.253,0,0,0,.254-.253V3.55a.254.254,0,0,0-.254-.254H30.919a.253.253,0,0,0-.253.254V15.925a.252.252,0,0,0,.253.253" transform="translate(-11.393 -3.296)" fill="#564aff"/>
    <path id="패스_15" data-name="패스 15" d="M37.051,13.763h2.333a.253.253,0,0,0,.254-.253V7.423a.253.253,0,0,0-.254-.253H37.051a.253.253,0,0,0-.253.253V13.51a.253.253,0,0,0,.253.253" transform="translate(-13.671 -4.735)" fill="#564aff"/>
    <path id="패스_16" data-name="패스 16" d="M18.652,29.089h2.333a.254.254,0,0,0,.255-.253V16.462a.255.255,0,0,0-.255-.255H18.652a.254.254,0,0,0-.254.255V28.836a.254.254,0,0,0,.254.253" transform="translate(-6.835 -8.093)" fill="#564aff"/>
  </g>
  <rect id="사각형_48" data-name="사각형 48" width="79" height="25" fill="none"/>
</svg>
