<svg xmlns="http://www.w3.org/2000/svg" width="26" height="26" viewBox="0 0 26 26">
  <g id="play" transform="translate(-555 -314)">
    <rect id="사각형_34" data-name="사각형 34" width="26" height="26" transform="translate(555 314)" fill="none"/>
    <g id="패스_3" data-name="패스 3" transform="translate(554.554 323) rotate(-30)" fill="none">
      <path d="M8.128,1.549a1,1,0,0,1,1.743,0l7.29,12.96A1,1,0,0,1,16.29,16H1.71a1,1,0,0,1-.872-1.49Z" stroke="none"/>
      <path d="M 8.999999046325684 1.839728355407715 C 8.946639060974121 1.839728355407715 8.873088836669922 1.857418060302734 8.825689315795898 1.941678047180176 L 1.535528182983398 14.90194797515869 C 1.489049911499023 14.98458766937256 1.510778427124023 15.05578804016113 1.537208557128906 15.10096740722656 C 1.563629150390625 15.14614772796631 1.615028381347656 15.1999979019165 1.709848403930664 15.1999979019165 L 16.2901496887207 15.1999979019165 C 16.38496971130371 15.1999979019165 16.43636894226074 15.14614772796631 16.46278953552246 15.10096740722656 C 16.48921966552734 15.05578804016113 16.51094818115234 14.98458766937256 16.46446990966797 14.90194797515869 L 9.174319267272949 1.94168758392334 C 9.126918792724609 1.857418060302734 9.053359031677246 1.839728355407715 8.999999046325684 1.839728355407715 M 9 1.039730072021484 C 9.340211868286133 1.039730072021484 9.680423736572266 1.209643363952637 9.871579170227051 1.549468040466309 L 17.16172981262207 14.50973796844482 C 17.53668975830078 15.17633819580078 17.05497932434082 15.99999809265137 16.2901496887207 15.99999809265137 L 1.709848403930664 15.99999809265137 C 0.9450187683105469 15.99999809265137 0.4633083343505859 15.17633819580078 0.8382682800292969 14.50973796844482 L 8.128429412841797 1.549468040466309 C 8.319579124450684 1.209643363952637 8.659789085388184 1.039730072021484 9 1.039730072021484 Z" stroke="none" fill="#333"/>
    </g>
  </g>
</svg>
