<svg id="search" xmlns="http://www.w3.org/2000/svg" width="20" height="20" viewBox="0 0 20 20">
  <path id="패스_4" data-name="패스 4" d="M23.2,23.2a1.25,1.25,0,0,1,1.769,0l4.812,4.812a1.25,1.25,0,1,1-1.767,1.769L23.2,24.971a1.25,1.25,0,0,1,0-1.769Z" transform="translate(-10.15 -10.149)" fill-rule="evenodd"/>
  <path id="패스_5" data-name="패스 5" d="M8.125,15A6.875,6.875,0,1,0,1.25,8.125,6.875,6.875,0,0,0,8.125,15ZM16.25,8.125A8.125,8.125,0,1,1,8.125,0,8.125,8.125,0,0,1,16.25,8.125Z" fill-rule="evenodd"/>
</svg>
